<svg xmlns="http://www.w3.org/2000/svg" viewBox="0 0 96 96" role="img" aria-label="Candy AI">
  <defs>
    <linearGradient id="wrap" x1="12" y1="12" x2="84" y2="84" gradientUnits="userSpaceOnUse">
      <stop stop-color="#f43f5e"/>
      <stop offset=".48" stop-color="#14b8a6"/>
      <stop offset="1" stop-color="#f59e0b"/>
    </linearGradient>
    <linearGradient id="shine" x1="28" y1="24" x2="70" y2="72" gradientUnits="userSpaceOnUse">
      <stop stop-color="#fff7ed"/>
      <stop offset="1" stop-color="#cffafe"/>
    </linearGradient>
  </defs>
  <rect width="96" height="96" rx="24" fill="#111827"/>
  <path d="M18 33c5-8 11-12 18-12h24c7 0 13 4 18 12l8 15-8 15c-5 8-11 12-18 12H36c-7 0-13-4-18-12l-8-15 8-15Z" fill="url(#wrap)"/>
  <path d="M32 34c5-5 10-7 16-7s12 2 16 7c4 4 6 9 6 14s-2 10-6 14c-4 5-10 7-16 7s-11-2-16-7c-4-4-6-9-6-14s2-10 6-14Z" fill="url(#shine)"/>
  <path d="M47 36c2-4 7-4 9 0l3 6 6 3c4 2 4 7 0 9l-6 3-3 6c-2 4-7 4-9 0l-3-6-6-3c-4-2-4-7 0-9l6-3 3-6Z" fill="#111827"/>
  <path d="M50 43c1-2 3-2 4 0l1 3 3 1c2 1 2 3 0 4l-3 1-1 3c-1 2-3 2-4 0l-1-3-3-1c-2-1-2-3 0-4l3-1 1-3Z" fill="#f9fafb"/>
</svg>
